<?xml version="1.0" encoding="UTF-8"?>
<!-- Generated by Pixelmator Pro 3.7.1 -->
<svg width="3300" height="2200" viewBox="0 0 3300 2200" xmlns="http://www.w3.org/2000/svg">
    <g id="Notes">
        <path id="artboard" fill="#ffffff" stroke="none" d="M 0 10 L 3300 10 L 3300 2210 L 0 2210 Z"/>
        <path id="Path" fill="none" stroke="#000000" stroke-width="0.5" d="M 263 302 L 3036 302"/>
        <text id="WeightScale-Variations" xml:space="preserve" x="261" y="336" font-family="Helvetica" font-size="13" font-weight="700" fill="#000000">Weight/Scale Variations</text>
        <text id="Ultralight" xml:space="preserve" x="531" y="336" font-family="Helvetica" font-size="13" fill="#000000">Ultralight</text>
        <text id="Thin" xml:space="preserve" x="840" y="336" font-family="Helvetica" font-size="13" fill="#000000">Thin</text>
        <text id="Light" xml:space="preserve" x="1136" y="336" font-family="Helvetica" font-size="13" fill="#000000">Light</text>
        <text id="Regular" xml:space="preserve" x="1424" y="336" font-family="Helvetica" font-size="13" fill="#000000">Regular</text>
        <text id="Medium" xml:space="preserve" x="1720" y="336" font-family="Helvetica" font-size="13" fill="#000000">Medium</text>
        <text id="Semibold" xml:space="preserve" x="2013" y="336" font-family="Helvetica" font-size="13" fill="#000000">Semibold</text>
        <text id="Bold" xml:space="preserve" x="2323" y="336" font-family="Helvetica" font-size="13" fill="#000000">Bold</text>
        <text id="Heavy" xml:space="preserve" x="2615" y="336" font-family="Helvetica" font-size="13" fill="#000000">Heavy</text>
        <text id="Black" xml:space="preserve" x="2914" y="336" font-family="Helvetica" font-size="13" fill="#000000">Black</text>
        <path id="path1" fill="none" stroke="#000000" stroke-width="0.5" d="M 263 1913 L 3036 1913"/>
        <g id="Group">
            <path id="path2" fill="#000000" stroke="none" d="M 272.248047 1943.830078 C 276.603516 1943.830078 280.138672 1940.304688 280.138672 1935.949219 C 280.138672 1931.59375 276.603516 1928.068359 272.248047 1928.068359 C 267.902344 1928.068359 264.367188 1931.59375 264.367188 1935.949219 C 264.367188 1940.304688 267.902344 1943.830078 272.248047 1943.830078 Z M 272.248047 1942.345703 C 268.712891 1942.345703 265.861328 1939.484375 265.861328 1935.949219 C 265.861328 1932.414063 268.712891 1929.552734 272.248047 1929.552734 C 275.783203 1929.552734 278.644531 1932.414063 278.644531 1935.949219 C 278.644531 1939.484375 275.783203 1942.345703 272.248047 1942.345703 Z M 272.970703 1938.791016 L 272.970703 1933.097656 C 272.970703 1932.648438 272.677734 1932.345703 272.228516 1932.345703 C 271.798828 1932.345703 271.505859 1932.648438 271.505859 1933.097656 L 271.505859 1938.791016 C 271.505859 1939.230469 271.798828 1939.533203 272.228516 1939.533203 C 272.677734 1939.533203 272.970703 1939.230469 272.970703 1938.791016 Z M 269.40625 1936.671875 L 275.089844 1936.671875 C 275.529297 1936.671875 275.832031 1936.378906 275.832031 1935.949219 C 275.832031 1935.509766 275.529297 1935.207031 275.089844 1935.207031 L 269.40625 1935.207031 C 268.957031 1935.207031 268.654297 1935.509766 268.654297 1935.949219 C 268.654297 1936.378906 268.957031 1936.671875 269.40625 1936.671875 Z"/>
        </g>
        <g id="g1">
            <path id="path3" fill="#000000" stroke="none" d="M 293.214966 1945.910156 C 298.713013 1945.910156 303.175934 1941.447266 303.175934 1935.949219 C 303.175934 1930.451172 298.713013 1925.988281 293.214966 1925.988281 C 287.716949 1925.988281 283.254028 1930.451172 283.254028 1935.949219 C 283.254028 1941.447266 287.716949 1945.910156 293.214966 1945.910156 Z M 293.214966 1944.25 C 288.625153 1944.25 284.914215 1940.539063 284.914215 1935.949219 C 284.914215 1931.359375 288.625153 1927.648438 293.214966 1927.648438 C 297.80481 1927.648438 301.515747 1931.359375 301.515747 1935.949219 C 301.515747 1940.539063 297.80481 1944.25 293.214966 1944.25 Z M 294.025513 1939.630859 L 294.025513 1932.248047 C 294.025513 1931.75 293.683716 1931.408203 293.195435 1931.408203 C 292.716919 1931.408203 292.384888 1931.75 292.384888 1932.248047 L 292.384888 1939.630859 C 292.384888 1940.119141 292.716919 1940.460938 293.195435 1940.460938 C 293.683716 1940.460938 294.025513 1940.128906 294.025513 1939.630859 Z M 289.513794 1936.75 L 296.906372 1936.75 C 297.394653 1936.75 297.73645 1936.427734 297.73645 1935.949219 C 297.73645 1935.460938 297.394653 1935.119141 296.906372 1935.119141 L 289.513794 1935.119141 C 289.015747 1935.119141 288.683716 1935.460938 288.683716 1935.949219 C 288.683716 1936.427734 289.015747 1936.75 289.513794 1936.75 Z"/>
        </g>
        <g id="g2">
            <path id="path4" fill="#000000" stroke="none" d="M 319.894714 1948.664063 C 326.916168 1948.664063 332.619293 1942.970703 332.619293 1935.949219 C 332.619293 1928.927734 326.916168 1923.224609 319.894714 1923.224609 C 312.87323 1923.224609 307.179871 1928.927734 307.179871 1935.949219 C 307.179871 1942.970703 312.87323 1948.664063 319.894714 1948.664063 Z M 319.894714 1946.847656 C 313.869293 1946.847656 308.996246 1941.974609 308.996246 1935.949219 C 308.996246 1929.923828 313.869293 1925.050781 319.894714 1925.050781 C 325.920105 1925.050781 330.793152 1929.923828 330.793152 1935.949219 C 330.793152 1941.974609 325.920105 1946.847656 319.894714 1946.847656 Z M 320.783386 1940.783203 L 320.783386 1931.085938 C 320.783386 1930.539063 320.412292 1930.158203 319.875153 1930.158203 C 319.357605 1930.158203 318.986481 1930.539063 318.986481 1931.085938 L 318.986481 1940.783203 C 318.986481 1941.320313 319.357605 1941.701172 319.875153 1941.701172 C 320.412292 1941.701172 320.783386 1941.330078 320.783386 1940.783203 Z M 315.041199 1936.828125 L 324.738464 1936.828125 C 325.275574 1936.828125 325.656433 1936.466797 325.656433 1935.949219 C 325.656433 1935.402344 325.285339 1935.03125 324.738464 1935.03125 L 315.041199 1935.03125 C 314.494324 1935.03125 314.12323 1935.402344 314.12323 1935.949219 C 314.12323 1936.466797 314.494324 1936.828125 315.041199 1936.828125 Z"/>
        </g>
        <text id="Design-Variations" xml:space="preserve" x="261" y="1967" font-family="Helvetica" font-size="13" font-weight="700" fill="#000000">Design Variations</text>
        <text id="Symbols-are-supported-in" xml:space="preserve" x="261" y="1985" font-family="Helvetica" font-size="13" fill="#000000">Symbols are supported in up to nine weights and three scales.</text>
        <text id="For-optimal-layout-with" xml:space="preserve" x="261" y="2003" font-family="Helvetica" font-size="13" fill="#000000">For optimal layout with text and other symbols, vertically align</text>
        <text id="symbols-with-the-adjacent" xml:space="preserve" x="261" y="2021" font-family="Helvetica" font-size="13" fill="#000000">symbols with the adjacent text.</text>
        <path id="path5" fill="none" stroke="#00aeef" stroke-width="0.5" d="M 776 1929 L 776 1943"/>
        <g id="g3">
            <path id="path6" fill="#000000" stroke="none" d="M 779.310547 1943.15625 C 779.828125 1943.15625 780.082031 1942.960938 780.267578 1942.414063 L 784.378906 1930.910156 L 784.427734 1930.910156 L 788.548828 1942.414063 C 788.734375 1942.960938 788.988281 1943.15625 789.496094 1943.15625 C 790.013672 1943.15625 790.345703 1942.84375 790.345703 1942.355469 C 790.345703 1942.189453 790.316406 1942.033203 790.238281 1941.828125 L 785.658203 1929.630859 C 785.433594 1929.035156 785.033203 1928.732422 784.408203 1928.732422 C 783.802734 1928.732422 783.392578 1929.025391 783.177734 1929.621094 L 778.597656 1941.837891 C 778.519531 1942.042969 778.490234 1942.199219 778.490234 1942.365234 C 778.490234 1942.853516 778.802734 1943.15625 779.310547 1943.15625 Z M 781.351563 1938.966797 L 787.484375 1938.966797 C 787.884766 1938.966797 788.216797 1938.634766 788.216797 1938.234375 C 788.216797 1937.824219 787.884766 1937.501953 787.484375 1937.501953 L 781.351563 1937.501953 C 780.951172 1937.501953 780.619141 1937.824219 780.619141 1938.234375 C 780.619141 1938.634766 780.951172 1938.966797 781.351563 1938.966797 Z"/>
        </g>
        <path id="path7" fill="none" stroke="#00aeef" stroke-width="0.5" d="M 792.835999 1929 L 792.835999 1943"/>
        <text id="Margins" xml:space="preserve" x="774" y="1967" font-family="Helvetica" font-size="13" font-weight="700" fill="#000000">Margins</text>
        <text id="Leading-and-trailing-margins" xml:space="preserve" x="774" y="1985" font-family="Helvetica" font-size="13" fill="#000000">Leading and trailing margins on the left and right side of each symbol</text>
        <text id="can-be-adjusted-by" xml:space="preserve" x="774" y="2003" font-family="Helvetica" font-size="13" fill="#000000">can be adjusted by modifying the x-location of the margin guidelines.</text>
        <text id="Modifications-are-automatically-applied" xml:space="preserve" x="774" y="2021" font-family="Helvetica" font-size="13" fill="#000000">Modifications are automatically applied proportionally to all</text>
        <text id="scales-and-weights" xml:space="preserve" x="774" y="2039" font-family="Helvetica" font-size="13" fill="#000000">scales and weights.</text>
        <g id="g4">
            <path id="path8" fill="#000000" stroke="none" d="M 1291.841797 1945.626953 L 1293.414063 1947.199219 C 1294.273438 1948.078125 1295.279297 1948.019531 1296.1875 1946.994141 L 1308.326172 1933.351563 L 1307.349609 1932.375 L 1295.298828 1945.910156 C 1294.9375 1946.300781 1294.605469 1946.398438 1294.136719 1945.929688 L 1293.101563 1944.904297 C 1292.642578 1944.445313 1292.740234 1944.113281 1293.140625 1943.742188 L 1306.636719 1931.310547 L 1305.660156 1930.34375 L 1292.046875 1942.863281 C 1291.050781 1943.78125 1290.982422 1944.757813 1291.841797 1945.626953 Z M 1300.816406 1926.134766 C 1300.40625 1926.535156 1300.367188 1927.111328 1300.601563 1927.492188 C 1300.826172 1927.853516 1301.294922 1928.097656 1301.919922 1927.941406 C 1303.091797 1927.609375 1304.439453 1927.462891 1305.699219 1928.126953 L 1305.162109 1929.552734 C 1304.839844 1930.353516 1305.015625 1930.929688 1305.503906 1931.4375 L 1307.554688 1933.498047 C 1308.023438 1933.976563 1308.462891 1933.986328 1308.970703 1933.888672 L 1309.859375 1933.742188 L 1310.376953 1934.25 L 1310.337891 1934.699219 C 1310.318359 1935.158203 1310.445313 1935.558594 1310.894531 1935.998047 L 1311.568359 1936.662109 C 1312.027344 1937.121094 1312.671875 1937.160156 1313.130859 1936.701172 L 1315.728516 1934.09375 C 1316.1875 1933.625 1316.158203 1933.019531 1315.689453 1932.560547 L 1315.005859 1931.876953 C 1314.566406 1931.4375 1314.195313 1931.271484 1313.736328 1931.300781 L 1313.267578 1931.349609 L 1312.779297 1930.861328 L 1312.984375 1929.923828 C 1313.111328 1929.376953 1312.935547 1928.927734 1312.408203 1928.400391 L 1310.152344 1926.164063 C 1307.564453 1923.595703 1303.033203 1923.957031 1300.816406 1926.134766 Z M 1302.232422 1926.544922 C 1303.990234 1925.265625 1307.427734 1925.412109 1308.970703 1926.935547 L 1311.431641 1929.376953 C 1311.636719 1929.582031 1311.675781 1929.738281 1311.617188 1930.041016 L 1311.324219 1931.369141 L 1312.671875 1932.707031 L 1313.550781 1932.658203 C 1313.775391 1932.648438 1313.853516 1932.667969 1314.019531 1932.833984 L 1314.527344 1933.332031 L 1312.359375 1935.5 L 1311.861328 1935.001953 C 1311.695313 1934.826172 1311.666016 1934.757813 1311.675781 1934.523438 L 1311.734375 1933.654297 L 1310.396484 1932.306641 L 1309.029297 1932.541016 C 1308.746094 1932.599609 1308.619141 1932.580078 1308.394531 1932.365234 L 1306.607422 1930.587891 C 1306.392578 1930.382813 1306.373047 1930.246094 1306.509766 1929.914063 L 1307.427734 1927.619141 C 1306.207031 1926.349609 1304.019531 1926.115234 1302.310547 1926.701172 C 1302.173828 1926.75 1302.125 1926.623047 1302.232422 1926.544922 Z"/>
        </g>
        <text id="Exporting" xml:space="preserve" x="1287" y="1967" font-family="Helvetica" font-size="13" font-weight="700" fill="#000000">Exporting</text>
        <text id="Symbols-should-be-outlined" xml:space="preserve" x="1287" y="1985" font-family="Helvetica" font-size="13" fill="#000000">Symbols should be outlined when exporting to ensure the</text>
        <text id="design-is-preserved-when" xml:space="preserve" x="1287" y="2003" font-family="Helvetica" font-size="13" fill="#000000">design is preserved when submitting to Xcode.</text>
        <text id="template-version" xml:space="preserve" x="2948" y="1947" font-family="Helvetica" font-size="13" fill="#000000">Template v.4.0</text>
        <text id="Requires-Xcode-14-or" xml:space="preserve" x="2861" y="1965" font-family="Helvetica" font-size="13" fill="#000000">Requires Xcode 14 or greater</text>
        <text id="Generated-from-squareandarrowup" xml:space="preserve" x="2819" y="1983" font-family="Helvetica" font-size="13" fill="#000000">Generated from square.and.arrow.up</text>
        <text id="Typeset-at-1000-points" xml:space="preserve" x="2898" y="2001" font-family="Helvetica" font-size="13" fill="#000000">Typeset at 100.0 points</text>
        <text id="Small" xml:space="preserve" x="261" y="740" font-family="Helvetica" font-size="13" fill="#000000">Small</text>
        <text id="text1" xml:space="preserve" x="261" y="1170" font-family="Helvetica" font-size="13" fill="#000000">Medium</text>
        <text id="Large" xml:space="preserve" x="261" y="1600" font-family="Helvetica" font-size="13" fill="#000000">Large</text>
    </g>
    <g id="Guides">
        <g id="H-reference">
            <path id="path9" fill="#27aae1" stroke="none" d="M 339.993652 696 L 342.637756 696 L 368.328094 628.867676 L 369.030304 628.867676 L 369.030304 625.541016 L 367.122589 625.541016 Z M 350.688507 671.520142 L 385.981506 671.520142 L 385.231506 669.271484 L 351.438507 669.271484 Z M 394.119598 696 L 396.763702 696 L 369.638214 625.541016 L 368.432587 625.541016 L 368.432587 628.867676 Z"/>
        </g>
        <path id="Baseline-S" fill="none" stroke="#27aae1" stroke-width="0.5" d="M 263 696 L 3036 696"/>
        <path id="Capline-S" fill="none" stroke="#27aae1" stroke-width="0.5" d="M 263 625.541016 L 3036 625.541016"/>
        <g id="g5">
            <path id="path10" fill="#27aae1" stroke="none" d="M 339.993652 1126 L 342.637756 1126 L 368.328094 1058.867676 L 369.030304 1058.867676 L 369.030304 1055.541016 L 367.122589 1055.541016 Z M 350.688507 1101.520142 L 385.981506 1101.520142 L 385.231506 1099.271484 L 351.438507 1099.271484 Z M 394.119598 1126 L 396.763702 1126 L 369.638214 1055.541016 L 368.432587 1055.541016 L 368.432587 1058.867676 Z"/>
        </g>
        <path id="Baseline-M" fill="none" stroke="#27aae1" stroke-width="0.5" d="M 263 1126 L 3036 1126"/>
        <path id="Capline-M" fill="none" stroke="#27aae1" stroke-width="0.5" d="M 263 1055.540039 L 3036 1055.540039"/>
        <g id="g6">
            <path id="path11" fill="#27aae1" stroke="none" d="M 339.993652 1556 L 342.637756 1556 L 368.328094 1488.867676 L 369.030304 1488.867676 L 369.030304 1485.541016 L 367.122589 1485.541016 Z M 350.688507 1531.52002 L 385.981506 1531.52002 L 385.231506 1529.271484 L 351.438507 1529.271484 Z M 394.119598 1556 L 396.763702 1556 L 369.638214 1485.541016 L 368.432587 1485.541016 L 368.432587 1488.867676 Z"/>
        </g>
        <path id="Baseline-L" fill="none" stroke="#27aae1" stroke-width="0.5" d="M 263 1556 L 3036 1556"/>
        <path id="Capline-L" fill="none" stroke="#27aae1" stroke-width="0.5" d="M 263 1485.540039 L 3036 1485.540039"/>
        <path id="right-margin-Black-S" fill="none" stroke="#00aeef" stroke-width="0.5" d="M 2980.810059 600.784912 L 2980.810059 720.120972"/>
        <path id="left-margin-Black-S" fill="none" stroke="#00aeef" stroke-width="0.5" d="M 2885.98999 600.784912 L 2885.98999 720.120972"/>
        <path id="right-margin-Regular-S" fill="none" stroke="#00aeef" stroke-width="0.5" d="M 1493.959961 600.784912 L 1493.959961 720.120972"/>
        <path id="left-margin-Regular-S" fill="none" stroke="#00aeef" stroke-width="0.5" d="M 1405.72998 600.784912 L 1405.72998 720.120972"/>
        <path id="right-margin-Ultralight-S" fill="none" stroke="#00aeef" stroke-width="0.5" d="M 601.625 600.784912 L 601.625 720.120972"/>
        <path id="left-margin-Ultralight-S" fill="none" stroke="#00aeef" stroke-width="0.5" d="M 517.796997 600.784912 L 517.796997 720.120972"/>
    </g>
    <g id="Symbols">
        <g id="g7">
            <g id="Black-S">
                <g id="Ultralight-S">
                    <g id="g8">
                        <path id="path12" fill="#e01e5a" fill-rule="evenodd" stroke="none" d="M 2896.876709 677.110718 C 2902.323975 677.095825 2906.735596 672.641602 2906.746582 667.144531 L 2906.746582 657.185181 L 2896.876709 657.185181 C 2891.431641 657.196289 2887.018555 661.643555 2887 667.137817 C 2887.006836 672.632446 2891.424561 677.090454 2896.869873 677.097168 Z M 2921.598389 657.178223 C 2916.151123 657.193237 2911.739502 661.647583 2911.728516 667.144531 L 2911.728516 692.097534 C 2911.741943 697.592041 2916.160156 702.043457 2921.598389 702.056885 C 2927.043701 702.042114 2931.453857 697.591675 2931.468506 692.097534 L 2931.468506 667.137817 C 2931.453857 661.643555 2927.043701 657.193237 2921.598389 657.178223 Z"/>
                        <path id="path13" fill="#36c5f0" fill-rule="evenodd" stroke="none" d="M 2911.728516 617.171143 C 2911.735352 622.665649 2916.15332 627.123779 2921.598389 627.130493 L 2931.468506 627.130493 L 2931.468506 617.171143 C 2931.45752 611.676758 2927.050293 607.223511 2921.605225 607.204834 C 2916.160645 607.219604 2911.750244 611.670044 2911.735352 617.164185 Z M 2931.468506 642.117188 C 2931.453857 636.622925 2927.043701 632.172485 2921.598389 632.157593 L 2896.869873 632.157593 C 2891.425049 632.172485 2887.014893 636.622925 2887 642.117188 C 2887.013428 647.61853 2891.431396 652.069824 2896.869873 652.076538 L 2921.605225 652.076538 C 2927.050293 652.061768 2931.460693 647.611572 2931.475098 642.117188 Z"/>
                        <path id="path14" fill="#2eb67d" fill-rule="evenodd" stroke="none" d="M 2946.401367 652.083496 C 2951.846191 652.068481 2956.256348 647.618164 2956.27124 642.123901 L 2956.27124 617.164185 C 2956.256348 611.672729 2951.850098 607.223511 2946.407959 607.204834 C 2940.962891 607.219604 2936.552734 611.670044 2936.537842 617.164185 L 2936.537842 642.123901 C 2936.55127 647.611816 2940.962402 652.069824 2946.407959 652.083496 Z M 2971.123291 632.157593 C 2965.678467 632.172485 2961.267822 636.622925 2961.253174 642.117188 L 2961.253174 652.076538 L 2971.123291 652.076538 C 2976.568115 652.06543 2980.981445 647.618164 2981 642.123901 C 2980.985107 636.629639 2976.574707 632.179321 2971.130127 632.164551 Z"/>
                        <path id="path15" fill="#ecb22e" fill-rule="evenodd" stroke="none" d="M 2936.53125 667.144531 C 2936.544678 672.63916 2940.956055 677.097168 2946.401367 677.104126 L 2971.130127 677.104126 C 2976.572266 677.089233 2980.981445 672.643066 2981 667.151245 C 2980.985107 661.657104 2976.574707 657.206665 2971.130127 657.191895 L 2946.401367 657.191895 C 2940.956055 657.206665 2936.545898 661.657104 2936.53125 667.151245 Z M 2956.27124 692.090576 C 2956.256348 686.596436 2951.846191 682.145996 2946.401367 682.131226 L 2936.53125 682.131226 L 2936.53125 692.090576 C 2936.544678 697.592041 2940.956055 702.043457 2946.401367 702.050049 C 2951.846191 702.035156 2956.256348 697.584961 2956.27124 692.090576 Z"/>
                    </g>
                </g>
            </g>
            <g id="Regular-S">
                <g id="g9">
                    <g id="g10">
                        <path id="path16" fill="#e01e5a" fill-rule="evenodd" stroke="none" d="M 1416.210449 674.435669 C 1421.290527 674.421753 1425.404297 670.267822 1425.414673 665.141724 L 1425.414673 655.854126 L 1416.210449 655.854126 C 1411.132813 655.864502 1407.017212 660.011719 1407 665.135376 C 1407.006226 670.259277 1411.126221 674.416748 1416.204224 674.423096 Z M 1439.264893 655.847656 C 1434.184814 655.861694 1430.070923 660.015503 1430.060669 665.141724 L 1430.060669 688.411377 C 1430.07312 693.5354 1434.193115 697.686401 1439.264893 697.698975 C 1444.342529 697.685059 1448.455322 693.535034 1448.468994 688.411377 L 1448.468994 665.135376 C 1448.455322 660.011719 1444.342529 655.861694 1439.264893 655.847656 Z"/>
                        <path id="path17" fill="#36c5f0" fill-rule="evenodd" stroke="none" d="M 1430.060669 618.539185 C 1430.066895 623.66333 1434.18689 627.820557 1439.264893 627.826782 L 1448.468994 627.826782 L 1448.468994 618.539185 C 1448.45874 613.415527 1444.348755 609.262695 1439.27124 609.245239 C 1434.193481 609.259155 1430.080688 613.409302 1430.066895 618.532959 Z M 1448.468994 641.80249 C 1448.455322 636.678955 1444.342529 632.528687 1439.264893 632.514893 L 1416.204224 632.514893 C 1411.126587 632.528687 1407.013794 636.678955 1407 641.80249 C 1407.012573 646.932861 1411.132446 651.083862 1416.204224 651.09021 L 1439.27124 651.09021 C 1444.348755 651.076416 1448.461548 646.92627 1448.475342 641.80249 Z"/>
                        <path id="path18" fill="#2eb67d" fill-rule="evenodd" stroke="none" d="M 1462.394409 651.096558 C 1467.472046 651.082642 1471.584839 646.932617 1471.598633 641.80896 L 1471.598633 618.532959 C 1471.584839 613.411743 1467.47583 609.262573 1462.400635 609.245239 C 1457.32312 609.259155 1453.210205 613.409302 1453.196411 618.532959 L 1453.196411 641.80896 C 1453.208862 646.926636 1457.322754 651.083862 1462.400635 651.096558 Z M 1485.448853 632.514893 C 1480.370972 632.528687 1476.258179 636.678955 1476.244507 641.80249 L 1476.244507 651.09021 L 1485.448853 651.09021 C 1490.526367 651.079834 1494.641968 646.932617 1494.65918 641.80896 C 1494.645386 636.685059 1490.532593 632.535156 1485.455078 632.52124 Z"/>
                        <path id="path19" fill="#ecb22e" fill-rule="evenodd" stroke="none" d="M 1453.190186 665.141724 C 1453.202637 670.265747 1457.316406 674.423096 1462.394409 674.429321 L 1485.455078 674.429321 C 1490.530151 674.415527 1494.64209 670.269165 1494.65918 665.148071 C 1494.645386 660.024414 1490.532593 655.87439 1485.455078 655.860474 L 1462.394409 655.860474 C 1457.316772 655.87439 1453.203857 660.024414 1453.190186 665.148071 Z M 1471.598633 688.405151 C 1471.584839 683.281372 1467.472046 679.131348 1462.394409 679.117432 L 1453.190186 679.117432 L 1453.190186 688.405151 C 1453.202637 693.5354 1457.316406 697.686401 1462.394409 697.692749 C 1467.472046 697.678833 1471.584839 693.528687 1471.598633 688.405151 Z"/>
                    </g>
                </g>
            </g>
            <g id="g11">
                <g id="g12">
                    <g id="g13">
                        <path id="path20" fill="#e01e5a" fill-rule="evenodd" stroke="none" d="M 527.720947 674.3302 C 532.531006 674.317017 536.426147 670.383911 536.435913 665.530273 L 536.435913 656.736206 L 527.720947 656.736206 C 522.913147 656.745972 519.016296 660.672852 519 665.524292 C 519.00592 670.375977 522.906921 674.312378 527.715027 674.318237 Z M 549.549866 656.730347 C 544.739868 656.74353 540.844727 660.676514 540.8349 665.530273 L 540.8349 687.56311 C 540.846802 692.414673 544.747803 696.345215 549.549866 696.357056 C 554.357666 696.343994 558.251892 692.414429 558.264893 687.56311 L 558.264893 665.524292 C 558.251892 660.672852 554.357666 656.74353 549.549866 656.730347 Z"/>
                        <path id="path21" fill="#36c5f0" fill-rule="evenodd" stroke="none" d="M 540.8349 621.404785 C 540.840881 626.256348 544.741821 630.192749 549.549866 630.198608 L 558.264893 630.198608 L 558.264893 621.404785 C 558.255127 616.553345 554.363586 612.621216 549.555908 612.604736 C 544.748047 612.61792 540.853882 616.547363 540.840881 621.398682 Z M 558.264893 643.431519 C 558.251892 638.580322 554.357666 634.650757 549.549866 634.637695 L 527.715027 634.637695 C 522.907227 634.650757 519.013062 638.580322 519 643.431519 C 519.011841 648.289185 522.912842 652.219482 527.715027 652.225586 L 549.555908 652.225586 C 554.363586 652.212524 558.257813 648.282959 558.270874 643.431519 Z"/>
                        <path id="path22" fill="#2eb67d" fill-rule="evenodd" stroke="none" d="M 571.450073 652.231445 C 576.257813 652.218262 580.152039 648.28894 580.1651 643.4375 L 580.1651 621.398682 C 580.152039 616.549805 576.261414 612.621216 571.455994 612.604736 C 566.648254 612.61792 562.754028 616.547363 562.740967 621.398682 L 562.740967 643.4375 C 562.752869 648.283203 566.647949 652.219482 571.455994 652.231445 Z M 593.279053 634.637695 C 588.471252 634.650757 584.577026 638.580322 584.564087 643.431519 L 584.564087 652.225586 L 593.279053 652.225586 C 598.086792 652.21582 601.983643 648.28894 602 643.4375 C 601.986938 638.586182 598.092712 634.656616 593.284973 634.643555 Z"/>
                        <path id="path23" fill="#ecb22e" fill-rule="evenodd" stroke="none" d="M 562.735046 665.530273 C 562.746948 670.381836 566.642029 674.318237 571.450073 674.324219 L 593.284973 674.324219 C 598.090393 674.311035 601.983643 670.385254 602 665.536133 C 601.986938 660.684937 598.092712 656.755371 593.284973 656.74231 L 571.450073 656.74231 C 566.642334 656.755371 562.748108 660.684937 562.735046 665.536133 Z M 580.1651 687.557129 C 580.152039 682.705688 576.257813 678.776245 571.450073 678.763184 L 562.735046 678.763184 L 562.735046 687.557129 C 562.746948 692.414673 566.642029 696.345215 571.450073 696.351074 C 576.257813 696.338013 580.152039 692.408447 580.1651 687.557129 Z"/>
                    </g>
                </g>
            </g>
        </g>
    </g>
    <g id="Data">
        <g id="Black-S-draw-attachment-data"/>
        <g id="Regular-S-draw-attachment-data"/>
        <g id="Ultralight-S-draw-attachment-data"/>
    </g>
</svg>
