<?xml version="1.0" encoding="UTF-8"?>
<!-- Generated by Pixelmator Pro 3.7.1 -->
<svg width="3300" height="2200" viewBox="0 0 3300 2200" xmlns="http://www.w3.org/2000/svg">
    <g id="Notes">
        <path id="artboard" fill="#ffffff" stroke="none" d="M 0 0 L 3300 0 L 3300 2200 L 0 2200 Z"/>
        <path id="Path" fill="none" stroke="#000000" stroke-width="0.5" d="M 263 292 L 3036 292"/>
        <text id="WeightScale-Variations" xml:space="preserve" x="262" y="324" font-family="Helvetica" font-size="13" font-weight="700" fill="#000000">Weight/Scale Variations</text>
        <text id="Ultralight" xml:space="preserve" x="532.352295" y="324" font-family="Helvetica" font-size="13" fill="#000000">Ultralight</text>
        <text id="Thin" xml:space="preserve" x="841.355469" y="324" font-family="Helvetica" font-size="13" fill="#000000">Thin</text>
        <text id="Light" xml:space="preserve" x="1137.405029" y="324" font-family="Helvetica" font-size="13" fill="#000000">Light</text>
        <text id="Regular" xml:space="preserve" x="1425.237305" y="324" font-family="Helvetica" font-size="13" fill="#000000">Regular</text>
        <text id="Medium" xml:space="preserve" x="1721.381836" y="324" font-family="Helvetica" font-size="13" fill="#000000">Medium</text>
        <text id="Semibold" xml:space="preserve" x="2014.401855" y="324" font-family="Helvetica" font-size="13" fill="#000000">Semibold</text>
        <text id="Bold" xml:space="preserve" x="2324.490479" y="324" font-family="Helvetica" font-size="13" fill="#000000">Bold</text>
        <text id="Heavy" xml:space="preserve" x="2616.075928" y="324" font-family="Helvetica" font-size="13" fill="#000000">Heavy</text>
        <text id="Black" xml:space="preserve" x="2915.105469" y="324" font-family="Helvetica" font-size="13" fill="#000000">Black</text>
        <path id="path1" fill="none" stroke="#000000" stroke-width="0.5" d="M 263 1903 L 3036 1903"/>
        <g id="Group">
            <path id="path2" fill="#000000" stroke="none" d="M 272.248047 1933.830078 C 276.603516 1933.830078 280.138672 1930.304688 280.138672 1925.949219 C 280.138672 1921.59375 276.603516 1918.068359 272.248047 1918.068359 C 267.902344 1918.068359 264.367188 1921.59375 264.367188 1925.949219 C 264.367188 1930.304688 267.902344 1933.830078 272.248047 1933.830078 Z M 272.248047 1932.345703 C 268.712891 1932.345703 265.861328 1929.484375 265.861328 1925.949219 C 265.861328 1922.414063 268.712891 1919.552734 272.248047 1919.552734 C 275.783203 1919.552734 278.644531 1922.414063 278.644531 1925.949219 C 278.644531 1929.484375 275.783203 1932.345703 272.248047 1932.345703 Z M 272.970703 1928.791016 L 272.970703 1923.097656 C 272.970703 1922.648438 272.677734 1922.345703 272.228516 1922.345703 C 271.798828 1922.345703 271.505859 1922.648438 271.505859 1923.097656 L 271.505859 1928.791016 C 271.505859 1929.230469 271.798828 1929.533203 272.228516 1929.533203 C 272.677734 1929.533203 272.970703 1929.230469 272.970703 1928.791016 Z M 269.40625 1926.671875 L 275.089844 1926.671875 C 275.529297 1926.671875 275.832031 1926.378906 275.832031 1925.949219 C 275.832031 1925.509766 275.529297 1925.207031 275.089844 1925.207031 L 269.40625 1925.207031 C 268.957031 1925.207031 268.654297 1925.509766 268.654297 1925.949219 C 268.654297 1926.378906 268.957031 1926.671875 269.40625 1926.671875 Z"/>
        </g>
        <g id="g1">
            <path id="path3" fill="#000000" stroke="none" d="M 293.214966 1935.910156 C 298.713013 1935.910156 303.175934 1931.447266 303.175934 1925.949219 C 303.175934 1920.451172 298.713013 1915.988281 293.214966 1915.988281 C 287.716949 1915.988281 283.254028 1920.451172 283.254028 1925.949219 C 283.254028 1931.447266 287.716949 1935.910156 293.214966 1935.910156 Z M 293.214966 1934.25 C 288.625153 1934.25 284.914215 1930.539063 284.914215 1925.949219 C 284.914215 1921.359375 288.625153 1917.648438 293.214966 1917.648438 C 297.80481 1917.648438 301.515747 1921.359375 301.515747 1925.949219 C 301.515747 1930.539063 297.80481 1934.25 293.214966 1934.25 Z M 294.025513 1929.630859 L 294.025513 1922.248047 C 294.025513 1921.75 293.683716 1921.408203 293.195435 1921.408203 C 292.716919 1921.408203 292.384888 1921.75 292.384888 1922.248047 L 292.384888 1929.630859 C 292.384888 1930.119141 292.716919 1930.460938 293.195435 1930.460938 C 293.683716 1930.460938 294.025513 1930.128906 294.025513 1929.630859 Z M 289.513794 1926.75 L 296.906372 1926.75 C 297.394653 1926.75 297.73645 1926.427734 297.73645 1925.949219 C 297.73645 1925.460938 297.394653 1925.119141 296.906372 1925.119141 L 289.513794 1925.119141 C 289.015747 1925.119141 288.683716 1925.460938 288.683716 1925.949219 C 288.683716 1926.427734 289.015747 1926.75 289.513794 1926.75 Z"/>
        </g>
        <g id="g2">
            <path id="path4" fill="#000000" stroke="none" d="M 319.894714 1938.664063 C 326.916168 1938.664063 332.619293 1932.970703 332.619293 1925.949219 C 332.619293 1918.927734 326.916168 1913.224609 319.894714 1913.224609 C 312.87323 1913.224609 307.179871 1918.927734 307.179871 1925.949219 C 307.179871 1932.970703 312.87323 1938.664063 319.894714 1938.664063 Z M 319.894714 1936.847656 C 313.869293 1936.847656 308.996246 1931.974609 308.996246 1925.949219 C 308.996246 1919.923828 313.869293 1915.050781 319.894714 1915.050781 C 325.920105 1915.050781 330.793152 1919.923828 330.793152 1925.949219 C 330.793152 1931.974609 325.920105 1936.847656 319.894714 1936.847656 Z M 320.783386 1930.783203 L 320.783386 1921.085938 C 320.783386 1920.539063 320.412292 1920.158203 319.875153 1920.158203 C 319.357605 1920.158203 318.986481 1920.539063 318.986481 1921.085938 L 318.986481 1930.783203 C 318.986481 1931.320313 319.357605 1931.701172 319.875153 1931.701172 C 320.412292 1931.701172 320.783386 1931.330078 320.783386 1930.783203 Z M 315.041199 1926.828125 L 324.738464 1926.828125 C 325.275574 1926.828125 325.656433 1926.466797 325.656433 1925.949219 C 325.656433 1925.402344 325.285339 1925.03125 324.738464 1925.03125 L 315.041199 1925.03125 C 314.494324 1925.03125 314.12323 1925.402344 314.12323 1925.949219 C 314.12323 1926.466797 314.494324 1926.828125 315.041199 1926.828125 Z"/>
        </g>
        <text id="Design-Variations" xml:space="preserve" x="262" y="1955" font-family="Helvetica" font-size="13" font-weight="700" fill="#000000">Design Variations</text>
        <text id="Symbols-are-supported-in" xml:space="preserve" x="262" y="1973" font-family="Helvetica" font-size="13" fill="#000000">Symbols are supported in up to nine weights and three scales.</text>
        <text id="For-optimal-layout-with" xml:space="preserve" x="262" y="1991" font-family="Helvetica" font-size="13" fill="#000000">For optimal layout with text and other symbols, vertically align</text>
        <text id="symbols-with-the-adjacent" xml:space="preserve" x="262" y="2009" font-family="Helvetica" font-size="13" fill="#000000">symbols with the adjacent text.</text>
        <path id="path5" fill="none" stroke="#00aeef" stroke-width="0.5" d="M 776 1919 L 776 1933"/>
        <g id="g3">
            <path id="path6" fill="#000000" stroke="none" d="M 779.310547 1933.15625 C 779.828125 1933.15625 780.082031 1932.960938 780.267578 1932.414063 L 784.378906 1920.910156 L 784.427734 1920.910156 L 788.548828 1932.414063 C 788.734375 1932.960938 788.988281 1933.15625 789.496094 1933.15625 C 790.013672 1933.15625 790.345703 1932.84375 790.345703 1932.355469 C 790.345703 1932.189453 790.316406 1932.033203 790.238281 1931.828125 L 785.658203 1919.630859 C 785.433594 1919.035156 785.033203 1918.732422 784.408203 1918.732422 C 783.802734 1918.732422 783.392578 1919.025391 783.177734 1919.621094 L 778.597656 1931.837891 C 778.519531 1932.042969 778.490234 1932.199219 778.490234 1932.365234 C 778.490234 1932.853516 778.802734 1933.15625 779.310547 1933.15625 Z M 781.351563 1928.966797 L 787.484375 1928.966797 C 787.884766 1928.966797 788.216797 1928.634766 788.216797 1928.234375 C 788.216797 1927.824219 787.884766 1927.501953 787.484375 1927.501953 L 781.351563 1927.501953 C 780.951172 1927.501953 780.619141 1927.824219 780.619141 1928.234375 C 780.619141 1928.634766 780.951172 1928.966797 781.351563 1928.966797 Z"/>
        </g>
        <path id="path7" fill="none" stroke="#00aeef" stroke-width="0.5" d="M 792.835999 1919 L 792.835999 1933"/>
        <text id="Margins" xml:space="preserve" x="775" y="1955" font-family="Helvetica" font-size="13" font-weight="700" fill="#000000">Margins</text>
        <text id="Leading-and-trailing-margins" xml:space="preserve" x="775" y="1973" font-family="Helvetica" font-size="13" fill="#000000">Leading and trailing margins on the left and right side of each symbol</text>
        <text id="can-be-adjusted-by" xml:space="preserve" x="775" y="1991" font-family="Helvetica" font-size="13" fill="#000000">can be adjusted by modifying the x-location of the margin guidelines.</text>
        <text id="Modifications-are-automatically-applied" xml:space="preserve" x="775" y="2009" font-family="Helvetica" font-size="13" fill="#000000">Modifications are automatically applied proportionally to all</text>
        <text id="scales-and-weights" xml:space="preserve" x="775" y="2027" font-family="Helvetica" font-size="13" fill="#000000">scales and weights.</text>
        <g id="g4">
            <path id="path8" fill="#000000" stroke="none" d="M 1291.841797 1935.626953 L 1293.414063 1937.199219 C 1294.273438 1938.078125 1295.279297 1938.019531 1296.1875 1936.994141 L 1308.326172 1923.351563 L 1307.349609 1922.375 L 1295.298828 1935.910156 C 1294.9375 1936.300781 1294.605469 1936.398438 1294.136719 1935.929688 L 1293.101563 1934.904297 C 1292.642578 1934.445313 1292.740234 1934.113281 1293.140625 1933.742188 L 1306.636719 1921.310547 L 1305.660156 1920.34375 L 1292.046875 1932.863281 C 1291.050781 1933.78125 1290.982422 1934.757813 1291.841797 1935.626953 Z M 1300.816406 1916.134766 C 1300.40625 1916.535156 1300.367188 1917.111328 1300.601563 1917.492188 C 1300.826172 1917.853516 1301.294922 1918.097656 1301.919922 1917.941406 C 1303.091797 1917.609375 1304.439453 1917.462891 1305.699219 1918.126953 L 1305.162109 1919.552734 C 1304.839844 1920.353516 1305.015625 1920.929688 1305.503906 1921.4375 L 1307.554688 1923.498047 C 1308.023438 1923.976563 1308.462891 1923.986328 1308.970703 1923.888672 L 1309.859375 1923.742188 L 1310.376953 1924.25 L 1310.337891 1924.699219 C 1310.318359 1925.158203 1310.445313 1925.558594 1310.894531 1925.998047 L 1311.568359 1926.662109 C 1312.027344 1927.121094 1312.671875 1927.160156 1313.130859 1926.701172 L 1315.728516 1924.09375 C 1316.1875 1923.625 1316.158203 1923.019531 1315.689453 1922.560547 L 1315.005859 1921.876953 C 1314.566406 1921.4375 1314.195313 1921.271484 1313.736328 1921.300781 L 1313.267578 1921.349609 L 1312.779297 1920.861328 L 1312.984375 1919.923828 C 1313.111328 1919.376953 1312.935547 1918.927734 1312.408203 1918.400391 L 1310.152344 1916.164063 C 1307.564453 1913.595703 1303.033203 1913.957031 1300.816406 1916.134766 Z M 1302.232422 1916.544922 C 1303.990234 1915.265625 1307.427734 1915.412109 1308.970703 1916.935547 L 1311.431641 1919.376953 C 1311.636719 1919.582031 1311.675781 1919.738281 1311.617188 1920.041016 L 1311.324219 1921.369141 L 1312.671875 1922.707031 L 1313.550781 1922.658203 C 1313.775391 1922.648438 1313.853516 1922.667969 1314.019531 1922.833984 L 1314.527344 1923.332031 L 1312.359375 1925.5 L 1311.861328 1925.001953 C 1311.695313 1924.826172 1311.666016 1924.757813 1311.675781 1924.523438 L 1311.734375 1923.654297 L 1310.396484 1922.306641 L 1309.029297 1922.541016 C 1308.746094 1922.599609 1308.619141 1922.580078 1308.394531 1922.365234 L 1306.607422 1920.587891 C 1306.392578 1920.382813 1306.373047 1920.246094 1306.509766 1919.914063 L 1307.427734 1917.619141 C 1306.207031 1916.349609 1304.019531 1916.115234 1302.310547 1916.701172 C 1302.173828 1916.75 1302.125 1916.623047 1302.232422 1916.544922 Z"/>
        </g>
        <text id="Exporting" xml:space="preserve" x="1288" y="1955" font-family="Helvetica" font-size="13" font-weight="700" fill="#000000">Exporting</text>
        <text id="Symbols-should-be-outlined" xml:space="preserve" x="1288" y="1973" font-family="Helvetica" font-size="13" fill="#000000">Symbols should be outlined when exporting to ensure the</text>
        <text id="design-is-preserved-when" xml:space="preserve" x="1288" y="1991" font-family="Helvetica" font-size="13" fill="#000000">design is preserved when submitting to Xcode.</text>
        <text id="template-version" xml:space="preserve" x="2949.414063" y="1935" font-family="Helvetica" font-size="13" fill="#000000">Template v.7.0</text>
        <text id="Requires-Xcode-26-or" xml:space="preserve" x="2862.45752" y="1953" font-family="Helvetica" font-size="13" fill="#000000">Requires Xcode 26 or greater</text>
        <text id="Generated-from-squareandarrowup" xml:space="preserve" x="2819.813965" y="1971" font-family="Helvetica" font-size="13" fill="#000000">Generated from square.and.arrow.up</text>
        <text id="Typeset-at-1000-points" xml:space="preserve" x="2898.569336" y="1989" font-family="Helvetica" font-size="13" fill="#000000">Typeset at 100.0 points</text>
        <text id="Small" xml:space="preserve" x="262" y="728" font-family="Helvetica" font-size="13" fill="#000000">Small</text>
        <text id="text1" xml:space="preserve" x="262" y="1158" font-family="Helvetica" font-size="13" fill="#000000">Medium</text>
        <text id="Large" xml:space="preserve" x="262" y="1588" font-family="Helvetica" font-size="13" fill="#000000">Large</text>
    </g>
    <g id="Guides">
        <g id="H-reference">
            <path id="path9" fill="#27aae1" stroke="none" d="M 341.993652 696 L 344.637756 696 L 370.328094 628.867676 L 371.030304 628.867676 L 371.030304 625.541016 L 369.122589 625.541016 Z M 352.688507 671.520142 L 387.981506 671.520142 L 387.231506 669.271484 L 353.438507 669.271484 Z M 396.119598 696 L 398.763702 696 L 371.638214 625.541016 L 370.432587 625.541016 L 370.432587 628.867676 Z"/>
        </g>
        <path id="Baseline-S" fill="none" stroke="#27aae1" stroke-width="0.5" d="M 265 696 L 3038 696"/>
        <path id="Capline-S" fill="none" stroke="#27aae1" stroke-width="0.5" d="M 265 625.541016 L 3038 625.541016"/>
        <g id="g5">
            <path id="path10" fill="#27aae1" stroke="none" d="M 341.993652 1126 L 344.637756 1126 L 370.328094 1058.867676 L 371.030304 1058.867676 L 371.030304 1055.541016 L 369.122589 1055.541016 Z M 352.688507 1101.520142 L 387.981506 1101.520142 L 387.231506 1099.271484 L 353.438507 1099.271484 Z M 396.119598 1126 L 398.763702 1126 L 371.638214 1055.541016 L 370.432587 1055.541016 L 370.432587 1058.867676 Z"/>
        </g>
        <path id="Baseline-M" fill="none" stroke="#27aae1" stroke-width="0.5" d="M 265 1126 L 3038 1126"/>
        <path id="Capline-M" fill="none" stroke="#27aae1" stroke-width="0.5" d="M 265 1055.540039 L 3038 1055.540039"/>
        <g id="g6">
            <path id="path11" fill="#27aae1" stroke="none" d="M 341.993652 1556 L 344.637756 1556 L 370.328094 1488.867676 L 371.030304 1488.867676 L 371.030304 1485.541016 L 369.122589 1485.541016 Z M 352.688507 1531.52002 L 387.981506 1531.52002 L 387.231506 1529.271484 L 353.438507 1529.271484 Z M 396.119598 1556 L 398.763702 1556 L 371.638214 1485.541016 L 370.432587 1485.541016 L 370.432587 1488.867676 Z"/>
        </g>
        <path id="Baseline-L" fill="none" stroke="#27aae1" stroke-width="0.5" d="M 265 1556 L 3038 1556"/>
        <path id="Capline-L" fill="none" stroke="#27aae1" stroke-width="0.5" d="M 265 1485.540039 L 3038 1485.540039"/>
        <path id="right-margin-Black-S" fill="none" stroke="#00aeef" stroke-width="0.5" d="M 2982.810059 600.784912 L 2982.810059 720.120972"/>
        <path id="left-margin-Black-S" fill="none" stroke="#00aeef" stroke-width="0.5" d="M 2887.98999 600.784912 L 2887.98999 720.120972"/>
        <path id="right-margin-Regular-S" fill="none" stroke="#00aeef" stroke-width="0.5" d="M 1495.959961 600.784912 L 1495.959961 720.120972"/>
        <path id="left-margin-Regular-S" fill="none" stroke="#00aeef" stroke-width="0.5" d="M 1407.72998 600.784912 L 1407.72998 720.120972"/>
        <path id="right-margin-Ultralight-S" fill="none" stroke="#00aeef" stroke-width="0.5" d="M 603.625 600.784912 L 603.625 720.120972"/>
        <path id="left-margin-Ultralight-S" fill="none" stroke="#00aeef" stroke-width="0.5" d="M 519.796997 600.784912 L 519.796997 720.120972"/>
    </g>
    <g id="Symbols">
        <g id="Black-S">
            <g id="Ultralight-S">
                <g id="g7">
                    <path id="path12" fill="#e01e5a" fill-rule="evenodd" stroke="none" d="M 2893.119385 679.30481 C 2899.030518 679.288818 2903.817383 674.498779 2903.829346 668.587524 L 2903.829346 657.877563 L 2893.119385 657.877563 C 2887.210938 657.889526 2882.422119 662.671997 2882.4021 668.580322 C 2882.409424 674.489014 2887.203369 679.282959 2893.112061 679.290283 Z M 2919.945313 657.870239 C 2914.03418 657.886353 2909.247314 662.676392 2909.235352 668.587524 L 2909.235352 695.420898 C 2909.25 701.32959 2914.043945 706.116333 2919.945313 706.130859 C 2925.85376 706.114868 2930.639404 701.329224 2930.655273 695.420898 L 2930.655273 668.580322 C 2930.639404 662.671997 2925.85376 657.886353 2919.945313 657.870239 Z"/>
                    <path id="path13" fill="#36c5f0" fill-rule="evenodd" stroke="none" d="M 2909.235352 614.848145 C 2909.242676 620.756836 2914.036621 625.550903 2919.945313 625.558105 L 2930.655273 625.558105 L 2930.655273 614.848145 C 2930.643311 608.939819 2925.861084 604.150879 2919.952637 604.130859 C 2914.044434 604.146851 2909.258789 608.932495 2909.242676 614.84082 Z M 2930.655273 641.674194 C 2930.639404 635.765869 2925.85376 630.980103 2919.945313 630.964111 L 2893.112061 630.964111 C 2887.203857 630.980103 2882.418213 635.765869 2882.4021 641.674194 C 2882.416748 647.590088 2887.210693 652.376831 2893.112061 652.384155 L 2919.952637 652.384155 C 2925.861084 652.368164 2930.646729 647.58252 2930.662598 641.674194 Z"/>
                    <path id="path14" fill="#2eb67d" fill-rule="evenodd" stroke="none" d="M 2946.858887 652.391479 C 2952.76709 652.375366 2957.552734 647.589722 2957.568848 641.681396 L 2957.568848 614.84082 C 2957.552734 608.935425 2952.771484 604.150879 2946.866211 604.130859 C 2940.957764 604.146851 2936.172119 608.932495 2936.156006 614.84082 L 2936.156006 641.681396 C 2936.170654 647.582886 2940.957275 652.376831 2946.866211 652.391479 Z M 2973.684814 630.964111 C 2967.776611 630.980103 2962.990723 635.765869 2962.974854 641.674194 L 2962.974854 652.384155 L 2973.684814 652.384155 C 2979.593262 652.372192 2984.38208 647.589722 2984.4021 641.681396 C 2984.385986 635.773071 2979.600342 630.987427 2973.692139 630.971436 Z"/>
                    <path id="path15" fill="#ecb22e" fill-rule="evenodd" stroke="none" d="M 2936.148926 668.587524 C 2936.16333 674.496338 2940.950195 679.290283 2946.858887 679.297607 L 2973.692139 679.297607 C 2979.597656 679.281616 2984.38208 674.500366 2984.4021 668.594849 C 2984.385986 662.686523 2979.600342 657.900879 2973.692139 657.884888 L 2946.858887 657.884888 C 2940.950439 657.900879 2936.164795 662.686523 2936.148926 668.594849 Z M 2957.568848 695.413574 C 2957.552734 689.505249 2952.76709 684.719604 2946.858887 684.703613 L 2936.148926 684.703613 L 2936.148926 695.413574 C 2936.16333 701.32959 2940.950195 706.116333 2946.858887 706.123535 C 2952.76709 706.107544 2957.552734 701.321899 2957.568848 695.413574 Z"/>
                </g>
            </g>
        </g>
        <g id="Regular-S">
            <g id="g8">
                <g id="g9">
                    <path id="path16" fill="#e01e5a" fill-rule="evenodd" stroke="none" d="M 1413.117798 676.024414 C 1418.507446 676.009766 1422.871826 671.642334 1422.882813 666.252808 L 1422.882813 656.487793 L 1413.117798 656.487793 C 1407.730835 656.498657 1403.364502 660.859131 1403.346191 666.246094 C 1403.352783 671.633423 1407.723877 676.004517 1413.111206 676.011108 Z M 1437.576782 656.481079 C 1432.187256 656.495728 1427.822754 660.863159 1427.81189 666.252808 L 1427.81189 690.718384 C 1427.825073 696.105713 1432.196167 700.470093 1437.576782 700.483398 C 1442.963867 700.46875 1447.327271 696.105347 1447.341797 690.718384 L 1447.341797 666.246094 C 1447.327271 660.859131 1442.963867 656.495728 1437.576782 656.481079 Z"/>
                    <path id="path17" fill="#36c5f0" fill-rule="evenodd" stroke="none" d="M 1427.81189 617.255005 C 1427.818481 622.642456 1432.189453 627.013428 1437.576782 627.02002 L 1447.341797 627.02002 L 1447.341797 617.255005 C 1447.330933 611.868042 1442.970459 607.501709 1437.583496 607.483398 C 1432.196533 607.498047 1427.83313 611.86145 1427.818481 617.248413 Z M 1447.341797 641.713989 C 1447.327271 636.327026 1442.963867 631.963623 1437.576782 631.949097 L 1413.111206 631.949097 C 1407.724243 631.963623 1403.36084 636.327026 1403.346191 641.713989 C 1403.359497 647.108032 1407.730469 651.472412 1413.111206 651.479004 L 1437.583496 651.479004 C 1442.970459 651.464478 1447.333862 647.101074 1447.348511 641.713989 Z"/>
                    <path id="path18" fill="#2eb67d" fill-rule="evenodd" stroke="none" d="M 1462.115601 651.485718 C 1467.502563 651.471069 1471.865967 647.107666 1471.880493 641.720703 L 1471.880493 617.248413 C 1471.865967 611.864014 1467.506592 607.501587 1462.122192 607.483398 C 1456.735229 607.498047 1452.371826 611.86145 1452.357178 617.248413 L 1452.357178 641.720703 C 1452.370483 647.10144 1456.734863 651.472412 1462.122192 651.485718 Z M 1486.574585 631.949097 C 1481.1875 631.963623 1476.824097 636.327026 1476.80957 641.713989 L 1476.80957 651.479004 L 1486.574585 651.479004 C 1491.961548 651.46814 1496.327881 647.107666 1496.346191 641.720703 C 1496.331543 636.333618 1491.96814 631.970337 1486.581177 631.955688 Z"/>
                    <path id="path19" fill="#ecb22e" fill-rule="evenodd" stroke="none" d="M 1452.350586 666.252808 C 1452.363892 671.640137 1456.728149 676.011108 1462.115601 676.0177 L 1486.581177 676.0177 C 1491.965576 676.003174 1496.328003 671.643799 1496.346191 666.259399 C 1496.331543 660.872437 1491.96814 656.509033 1486.581177 656.494385 L 1462.115601 656.494385 C 1456.728516 656.509033 1452.365112 660.872437 1452.350586 666.259399 Z M 1471.880493 690.711792 C 1471.865967 685.324707 1467.502563 680.961304 1462.115601 680.946777 L 1452.350586 680.946777 L 1452.350586 690.711792 C 1452.363892 696.105713 1456.728149 700.470093 1462.115601 700.476807 C 1467.502563 700.462158 1471.865967 696.098755 1471.880493 690.711792 Z"/>
                </g>
            </g>
        </g>
        <g id="g10">
            <g id="g11">
                <g id="g12">
                    <path id="path20" fill="#e01e5a" fill-rule="evenodd" stroke="none" d="M 525.352051 675.601318 C 530.393921 675.587646 534.476807 671.502075 534.487061 666.460205 L 534.487061 657.325195 L 525.352051 657.325195 C 520.312561 657.335327 516.227905 661.414429 516.210815 666.453979 C 516.217041 671.493774 520.30603 675.582764 525.345825 675.588989 Z M 548.233032 657.31897 C 543.191162 657.332642 539.108276 661.418213 539.098022 666.460205 L 539.098022 689.347412 C 539.110474 694.387085 543.199463 698.469971 548.233032 698.4823 C 553.272461 698.46875 557.35437 694.386841 557.368042 689.347412 L 557.368042 666.453979 C 557.35437 661.414429 553.272461 657.332642 548.233032 657.31897 Z"/>
                    <path id="path21" fill="#36c5f0" fill-rule="evenodd" stroke="none" d="M 539.098022 620.623535 C 539.104248 625.66333 543.193237 629.752319 548.233032 629.758545 L 557.368042 629.758545 L 557.368042 620.623535 C 557.357788 615.584106 553.278687 611.49939 548.239258 611.482422 C 543.199768 611.495972 539.11792 615.577881 539.104248 620.61731 Z M 557.368042 643.504517 C 557.35437 638.465088 553.272461 634.383179 548.233032 634.369629 L 525.345825 634.369629 C 520.306335 634.383179 516.224487 638.465088 516.210815 643.504517 C 516.223267 648.550537 520.312256 652.633301 525.345825 652.639526 L 548.239258 652.639526 C 553.278687 652.625977 557.360596 648.544067 557.374268 643.504517 Z"/>
                    <path id="path22" fill="#2eb67d" fill-rule="evenodd" stroke="none" d="M 571.188599 652.645752 C 576.228027 652.63208 580.309937 648.550293 580.323608 643.510742 L 580.323608 620.61731 C 580.309937 615.580322 576.231812 611.49939 571.194824 611.482422 C 566.155334 611.495972 562.073486 615.577881 562.059814 620.61731 L 562.059814 643.510742 C 562.072266 648.544312 566.155029 652.633301 571.194824 652.645752 Z M 594.06958 634.369629 C 589.030151 634.383179 584.948242 638.465088 584.934631 643.504517 L 584.934631 652.639526 L 594.06958 652.639526 C 599.10907 652.629395 603.193726 648.550293 603.210815 643.510742 C 603.197144 638.471313 599.115295 634.389404 594.075806 634.375732 Z"/>
                    <path id="path23" fill="#ecb22e" fill-rule="evenodd" stroke="none" d="M 562.053589 666.460205 C 562.06604 671.499878 566.148804 675.588989 571.188599 675.595093 L 594.075806 675.595093 C 599.112854 675.581543 603.193726 671.503418 603.210815 666.466309 C 603.197144 661.42688 599.115295 657.344971 594.075806 657.331421 L 571.188599 657.331421 C 566.14917 657.344971 562.067261 661.42688 562.053589 666.466309 Z M 580.323608 689.341187 C 580.309937 684.301636 576.228027 680.219849 571.188599 680.206177 L 562.053589 680.206177 L 562.053589 689.341187 C 562.06604 694.387085 566.148804 698.469971 571.188599 698.476196 C 576.228027 698.462524 580.309937 694.380615 580.323608 689.341187 Z"/>
                </g>
            </g>
        </g>
    </g>
    <g id="Data">
        <g id="Black-S-draw-attachment-data"/>
        <g id="Regular-S-draw-attachment-data"/>
        <g id="Ultralight-S-draw-attachment-data"/>
    </g>
</svg>
